<?xml version="1.0" encoding="UTF-8" standalone="no"?>
<!-- Created with Inkscape (http://www.inkscape.org/) -->

<svg
   width="1000.0001"
   height="1000.0001"
   viewBox="0 0 264.58335 264.58335"
   version="1.1"
   id="svg5"
   inkscape:version="1.1 (c68e22c387, 2021-05-23)"
   sodipodi:docname="favicon.svg"
   inkscape:export-filename="D:\Google Drive\Raw Material\logo.png"
   inkscape:export-xdpi="96"
   inkscape:export-ydpi="96"
   xmlns:inkscape="http://www.inkscape.org/namespaces/inkscape"
   xmlns:sodipodi="http://sodipodi.sourceforge.net/DTD/sodipodi-0.dtd"
   xmlns="http://www.w3.org/2000/svg"
   xmlns:svg="http://www.w3.org/2000/svg">
  <sodipodi:namedview
     id="namedview7"
     pagecolor="#1a1a1a"
     bordercolor="#ff0066"
     borderopacity="1"
     inkscape:pageshadow="0"
     inkscape:pageopacity="0"
     inkscape:pagecheckerboard="true"
     inkscape:document-units="px"
     showgrid="false"
     units="px"
     inkscape:showpageshadow="false"
     inkscape:object-paths="false"
     inkscape:snap-intersection-paths="true"
     inkscape:snap-smooth-nodes="false"
     inkscape:zoom="0.33317902"
     inkscape:cx="1208.0593"
     inkscape:cy="886.91058"
     inkscape:window-width="1920"
     inkscape:window-height="1017"
     inkscape:window-x="1912"
     inkscape:window-y="-8"
     inkscape:window-maximized="1"
     inkscape:current-layer="layer1"
     inkscape:snap-page="true"
     inkscape:object-nodes="false" />
  <defs
     id="defs2" />
  <g
     inkscape:label="Layer 1"
     inkscape:groupmode="layer"
     id="layer1"
     transform="translate(263.55768,-99.641655)">
    <g
       id="g1806"
       transform="matrix(1.5278081,0,0,1.5278081,-385.30851,-149.72579)"
       inkscape:export-filename="D:\Google Drive\Raw Material\favicon.png"
       inkscape:export-xdpi="96"
       inkscape:export-ydpi="96">
      <path
         id="path1406"
         style="fill:#7b00ff;stroke:none;stroke-width:1.23512px;stroke-linecap:butt;stroke-linejoin:miter;stroke-opacity:1"
         d="m 1680.5723,459.21875 c -1.2824,0.0478 -2.6101,0.43026 -4.0235,1.14063 -1.9218,0.96597 -10.8756,9.875 -19.8965,19.79687 -18.7278,20.59846 -23.97,24.20196 -36.6855,25.22266 -10.7832,0.86555 -16.1935,-1.31767 -34.9004,-14.07422 -16.7667,-11.43353 -19.8471,-12.69077 -24.707,-10.08985 -4.518,2.41796 -5.0855,6.50638 -3.3965,24.44727 2.166,23.00746 1.6156,34.21449 -2.0449,41.66016 -3.5484,7.21746 -7.8822,12.51292 -13.334,16.29101 -2.3095,1.60044 -13.9343,7.19674 -25.832,12.43555 -11.8978,5.23884 -22.4814,10.29287 -23.5196,11.23242 -2.5883,2.3424 -3.2573,6.79681 -1.6113,10.73633 1.5327,3.66826 1.0917,3.43266 29.7715,15.98047 22.4297,9.81331 28.2477,14.24056 33.9687,25.85547 3.4238,6.95089 3.4922,7.37289 3.4922,21.51562 0,7.93444 -0.4277,21.96598 -0.9512,31.18164 -0.8511,14.98621 -0.7609,17.04946 0.8614,19.52539 1.5675,2.39225 4.783,4.49315 7.2207,4.71875 0.4018,0.0378 2.0205,-0.42381 3.5976,-1.02344 1.5772,-0.59962 9.0446,-7.10269 16.5938,-14.45312 16.8744,-16.43017 21.6611,-19.06944 34.5449,-19.04688 10.8191,0.0189 14.2755,1.54334 32.7598,14.44336 16.7166,11.66642 18.5351,12.49697 23.1582,10.58204 6.3218,-2.61858 6.6422,-4.60178 4.6484,-28.80274 -2.297,-27.88195 -1.0521,-34.4889 8.752,-46.43164 6.1136,-7.44729 12.9885,-10.63528 35.7617,-16.58203 18.3803,-4.79966 21.1397,-5.80721 23.8359,-8.70313 2.5182,-2.70466 2.9446,-3.91617 2.4512,-6.95703 -0.3288,-2.02514 -1.1581,-4.35742 -1.8438,-5.18359 -0.6856,-0.82621 -12.5904,-7.62401 -26.4531,-15.10547 -19.5493,-10.55044 -26.4712,-14.85329 -30.8535,-19.18164 -6.6376,-6.55589 -10.4828,-14.2943 -11.834,-23.82227 -1.0515,-7.41479 -0.4732,-11.64934 6.7442,-49.40429 3.76,-19.66961 3.7533,-21.98646 -0.072,-25.33399 -2.058,-1.80078 -4.0659,-2.6499 -6.2031,-2.57031 z m -17.0528,43.83984 c 0.3432,0.0648 0.2409,0.77731 0,1.95899 -2.3047,11.39905 -3.7988,21.92396 -3.7852,26.65234 0.038,12.74601 5.9764,28.21441 14.9961,39.05274 6.0267,7.24184 12.8727,12.14593 28.4375,20.37109 6.0043,3.17295 10.9246,6.01663 10.9336,6.32031 0.01,0.3035 -3.2236,1.40313 -7.1836,2.44141 -23.2555,6.09759 -40.1452,22.50385 -45.6777,44.36914 -1.273,5.031 -1.6298,10.3828 -1.3574,20.33789 l 0.3691,13.50977 -7.7793,-5.07813 c -10.8895,-7.10986 -18.1545,-9.67707 -29.0723,-10.27344 -15.4488,-0.84385 -27.6477,3.13483 -39.6152,12.92188 l -6.0644,4.96094 0.1484,-17.3379 c 0.1402,-16.25117 -0.022,-17.78663 -2.5977,-24.52734 -7.9824,-20.88729 -19.5098,-31.36157 -47.2871,-42.97266 -4.266,-1.78321 -4.2658,-1.78362 -1.5996,-2.93554 24.1425,-10.43074 32.9302,-16.48353 40.9258,-28.18555 8.9053,-13.0334 12.2306,-27.35632 10.5332,-45.38281 -0.4833,-5.13336 -0.734,-9.33203 -0.5566,-9.33203 0.1772,0 3.1311,1.91623 6.5644,4.25976 9.1422,6.24046 16.9602,9.34762 26.9785,10.71875 16.6754,2.28223 32.6242,-3.27403 45.8262,-15.96289 4.4797,-4.30559 6.2894,-5.99478 6.8613,-5.88672 z"
         transform="matrix(0.26458332,0,0,0.26458332,-263.55768,99.641655)" />
      <path
         style="fill:#ffffff;stroke-width:0.282222"
         d="m 133.03163,321.86241 c -0.19403,-0.0783 -0.35688,-0.60802 -0.36189,-1.17716 -0.005,-0.56915 0.65053,-10.46308 1.45677,-21.98651 1.64357,-23.49122 1.66275,-22.35177 -0.41312,-24.53674 -1.09996,-1.15776 -2.40134,-1.76109 -20.21293,-9.37087 -10.4705,-4.47339 -19.169354,-8.34282 -19.330774,-8.59873 -0.2041,-0.32356 -0.20164,-0.61573 0.008,-0.95918 0.17206,-0.2818 7.092684,-3.40263 16.115484,-7.26722 8.69764,-3.72534 17.26078,-7.39682 19.0292,-8.15887 2.37728,-1.02441 3.51492,-1.69254 4.36488,-2.56347 2.07108,-2.12217 2.05922,-1.52832 0.41386,-20.72369 -0.80033,-9.33693 -1.41601,-17.44667 -1.36818,-18.02165 0.0606,-0.7289 0.23673,-1.07378 0.58164,-1.13915 0.28957,-0.0549 6.11423,3.72525 14.04741,9.11658 7.454,5.06569 13.99006,9.39307 14.52459,9.6164 1.32643,0.55422 3.16161,0.49987 4.51776,-0.13381 1.40554,-0.65675 2.30382,-1.58133 20.72583,-21.33234 8.25231,-8.84766 15.31659,-16.33474 15.69837,-16.63795 0.6469,-0.51376 0.72607,-0.51938 1.16287,-0.0826 0.4368,0.4368 0.10979,2.29967 -4.8033,27.3624 -2.8996,14.79152 -5.2709,27.52034 -5.26955,28.28625 0.003,1.54262 0.76022,3.38152 1.79246,4.35126 0.36087,0.33902 10.0297,5.59885 21.48629,11.68851 11.45658,6.08966 20.97029,11.29435 21.14158,11.56599 0.75113,1.19118 0.44578,1.2897 -20.45885,6.60086 -11.08198,2.81555 -20.58865,5.35555 -21.12594,5.64444 -1.26732,0.68141 -2.75637,2.65505 -3.00983,3.98934 -0.11906,0.62675 0.40097,8.09362 1.28741,18.48548 1.50833,17.68214 1.52529,18.2671 0.52974,18.2671 -0.14631,0 -6.5125,-4.24135 -14.1471,-9.42521 -9.24486,-6.27723 -14.29232,-9.53573 -15.11232,-9.7561 -1.38931,-0.37338 -2.85606,-0.19705 -4.18594,0.50322 -0.49588,0.26112 -7.07364,6.34851 -14.61724,13.52753 -7.54359,7.17903 -13.80536,13.04275 -13.91505,13.0305 -0.10968,-0.0122 -0.35817,-0.0863 -0.5522,-0.16463 z m 18.43139,-32.83932 c 0.41729,-0.15865 2.39292,-1.87966 4.39031,-3.82446 4.46468,-4.34715 5.73112,-5.04542 9.13996,-5.03945 2.86255,0.005 3.77712,0.40822 8.66775,3.82135 4.42295,3.08674 4.90413,3.30662 6.12732,2.79996 1.67264,-0.69283 1.75731,-1.21749 1.22979,-7.62066 -0.60774,-7.3771 -0.27824,-9.1251 2.31574,-12.28495 1.61757,-1.97043 3.4365,-2.81382 9.46191,-4.38723 4.86313,-1.26991 5.59308,-1.53643 6.30645,-2.30264 0.66626,-0.71561 0.77922,-1.03616 0.64866,-1.84072 -0.087,-0.53582 -0.30653,-1.15307 -0.48795,-1.37166 -0.18142,-0.2186 -3.33082,-2.01702 -6.99865,-3.99649 -5.17243,-2.79147 -7.00424,-3.93034 -8.16372,-5.07555 -1.7562,-1.73458 -2.77316,-3.78202 -3.13066,-6.30296 -0.27821,-1.96183 -0.12529,-3.08214 1.78429,-13.07147 0.99485,-5.20425 0.9931,-5.81719 -0.0191,-6.70289 -0.8712,-0.76233 -1.70902,-0.87942 -2.7062,-0.37822 -0.50849,0.25558 -2.87732,2.61254 -5.26409,5.2377 -4.95508,5.45001 -6.34191,6.40353 -9.70621,6.67359 -2.85305,0.22901 -4.28484,-0.34831 -9.23436,-3.72348 -4.43619,-3.02512 -5.2509,-3.35786 -6.53675,-2.6697 -1.19538,0.63975 -1.3457,1.72153 -0.89881,6.46839 0.57308,6.08739 0.42757,9.05247 -0.54095,11.02247 -0.93883,1.90962 -2.0857,3.31076 -3.52815,4.31038 -0.61104,0.42345 -3.68658,1.904 -6.83453,3.2901 -3.14796,1.38611 -5.9483,2.72359 -6.22299,2.97218 -0.68484,0.61976 -0.8616,1.79815 -0.42609,2.84048 0.40553,0.97056 0.28886,0.90794 7.87705,4.22788 5.93453,2.59644 7.47364,3.768 8.98734,6.84111 0.90587,1.83909 0.92402,1.95097 0.92402,5.6929 0,2.09932 -0.1133,5.81193 -0.25179,8.25024 -0.22519,3.9651 -0.2011,4.51065 0.22812,5.16574 0.41473,0.63295 1.26534,1.18894 1.9103,1.24863 0.10632,0.01 0.53471,-0.11192 0.95199,-0.27057 z m 2.45788,-13.89231 c 0.0371,-4.29979 -0.006,-4.70614 -0.68759,-6.48962 -2.11202,-5.52643 -5.16172,-8.29799 -12.51113,-11.37009 -1.12872,-0.47181 -1.12878,-0.47193 -0.42333,-0.77671 6.38771,-2.7598 8.7129,-4.36109 10.82841,-7.45725 2.3562,-3.44842 3.23557,-7.23771 2.78648,-12.00722 -0.12788,-1.3582 -0.19411,-2.46945 -0.14718,-2.46945 0.0469,0 0.82856,0.50732 1.73695,1.12738 2.41888,1.65112 4.48748,2.47287 7.13817,2.83565 4.41203,0.60384 8.63192,-0.86599 12.12496,-4.22325 1.89641,-1.8227 1.98444,-1.87308 1.81587,-1.03934 -0.60977,3.016 -1.00533,5.80048 -1.00172,7.05153 0.01,3.37238 1.58142,7.46521 3.96788,10.33285 1.59457,1.91607 3.40599,3.21366 7.52417,5.3899 1.58864,0.83951 2.89039,1.59213 2.89278,1.67248 0.002,0.0803 -0.85292,0.37087 -1.90067,0.64558 -6.15302,1.61332 -10.62191,5.95412 -12.08572,11.73931 -0.3368,1.33112 -0.43136,2.74728 -0.3593,5.38123 l 0.0978,3.5747 -2.05817,-1.3438 c -2.88117,-1.88115 -4.80357,-2.56048 -7.69223,-2.71827 -4.08751,-0.22327 -7.31472,0.82945 -10.48111,3.41894 l -1.60484,1.31246 z"
         id="path963" />
    </g>
  </g>
</svg>
